<svg xmlns="http://www.w3.org/2000/svg" viewBox="0 0 24 24" fill="currentColor">
  <path d="M8.691 2.188C3.891 2.188 0 5.476 0 9.53c0 2.212 1.17 4.203 3.002 5.55a.59.59 0 0 1 .213.665l-.39 1.48c-.019.07-.048.141-.048.213 0 .163.13.295.29.295a.328.328 0 0 0 .186-.059l1.866-1.12a.856.856 0 0 1 .614-.096c1.14.272 2.37.42 3.649.42h.38c-.243-.79-.372-1.622-.372-2.476 0-4.194 3.999-7.636 8.91-7.636.26 0 .514.01.77.028C18.335 3.97 13.87 2.188 8.691 2.188zm-2.6 4.408a1.104 1.104 0 1 1 0 2.208 1.104 1.104 0 0 1 0-2.208zm5.2 0a1.104 1.104 0 1 1 0 2.208 1.104 1.104 0 0 1 0-2.208z"/>
  <path d="M23.997 14.398c0-3.401-3.407-6.16-7.607-6.16-4.2 0-7.607 2.759-7.607 6.16s3.407 6.16 7.607 6.16c1.098 0 2.15-.17 3.102-.48a.72.72 0 0 1 .52.082l1.588.952a.277.277 0 0 0 .158.05c.136 0 .246-.111.246-.248 0-.06-.025-.12-.04-.18l-.332-1.26a.5.5 0 0 1 .18-.563c1.552-1.147 2.548-2.86 2.548-4.712h-.363zm-9.87-1.045a.932.932 0 1 1 0-1.864.932.932 0 0 1 0 1.864zm4.525 0a.932.932 0 1 1 0-1.864.932.932 0 0 1 0 1.864z"/>
</svg>
