<svg xmlns="http://www.w3.org/2000/svg" viewBox="0 0 24 24" fill="currentColor">
  <path d="M10.098 18.6c-3.792.434-7.07-1.345-7.32-3.973-.25-2.628 2.636-5.06 6.428-5.494 3.792-.434 7.07 1.345 7.32 3.973.25 2.628-2.636 5.06-6.428 5.494zm6.39-8.328c-.24-.072-.404-.12-.28-.432.27-.678.298-1.263.006-1.68-.548-.784-2.048-.742-3.772-.02 0 0-.54.236-.402-.192.264-.846.224-1.554-.186-1.964-.932-.932-3.414.036-5.544 2.16C4.34 10.108 3.2 12.228 3.2 14.058c0 3.504 4.494 5.636 8.892 5.636 5.762 0 9.592-3.346 9.592-6.002 0-1.606-1.354-2.518-2.518-2.846-.398-.112-.69-.198-.67-.574z"/>
  <path d="M17.612 7.39c.196.05.382.13.55.236a1.62 1.62 0 0 1 .71 1.168c.024.226-.01.454-.098.664-.066.158.04.234.2.178a2.105 2.105 0 0 0 1.358-2.252 2.163 2.163 0 0 0-1.796-1.826 2.102 2.102 0 0 0-2.394 1.336c-.076.2.018.266.2.218a2.67 2.67 0 0 1 1.27-.044v.322z"/>
  <path d="M19.476 4.458a4.606 4.606 0 0 0-3.834-1.218c-.334.054-.412.196-.33.488.07.252.17.32.458.268a3.47 3.47 0 0 1 2.89.918 3.384 3.384 0 0 1 .918 2.886c-.04.294.038.436.312.488.296.056.396-.042.438-.346a4.488 4.488 0 0 0-1.218-3.834l.366.35z"/>
  <ellipse cx="10.4" cy="14.95" rx="2.2" ry="1.5"/>
</svg>
