<svg xmlns="http://www.w3.org/2000/svg" viewBox="0 0 24 24" fill="currentColor">
  <path d="M12 0C5.373 0 0 5.373 0 12s5.373 12 12 12 12-5.373 12-12S18.627 0 12 0zm5.894 16.546c-.192.384-.557.634-.98.672h-.07c-.317 0-.624-.132-.845-.365l-2.74-2.866v2.897c0 .384-.192.72-.509.913a1.03 1.03 0 0 1-1.04.019.988.988 0 0 1-.537-.904v-5.98a1.46 1.46 0 0 1 .278-.852c.206-.278.528-.451.877-.47.35-.02.69.115.932.365l2.74 2.867V9.969c0-.384.192-.72.509-.913a1.03 1.03 0 0 1 1.04-.019c.33.182.537.528.537.904v5.98c.009.213-.048.422-.163.606l-.029.019zM8.854 7.424H5.76c-.48 0-.894.346-.98.816a.993.993 0 0 0 .528 1.067c.134.077.288.115.442.115h1.352L5.174 12.93a1.477 1.477 0 0 0-.365.97v.298c0 .557.451 1.008 1.008 1.008h3.086c.48 0 .894-.346.98-.816a.993.993 0 0 0-.528-1.067.96.96 0 0 0-.442-.115H7.561l1.926-3.508c.24-.336.365-.739.365-1.152v-.115c0-.557-.451-1.008-1.008-1.008h.01z"/>
</svg>
